# xmcd
# Track frame offsets:
# 150
# 13617
# 32565
# 49467
# 67102
# 79068
# 96566
# 113069
# 129618
# 145917
# 164055
# 180129
# 194855
# 212507
# 231905
# 247830
# 260771
# 282125
# 295504
# 308344
#
# Disc length: 4361 seconds
# Revision: 3
# Processed by: cddbd v1.5.2PL0 Copyright (c) Steve Scherf et al.
# Submitted via: VisiTrax 2.11.3.279 - For more info visit www.synapsa.com
#
DISCID=24110714
DTITLE=Rogers, Kenny - The Best Of Kenny Rogers - Disc 2
DYEAR=2005
DGENRE=Country
TTITLE0=Rogers, Kenny - Ruby, Don't Take Your Love to Town (S)
TTITLE1=Rogers, Kenny - She Believes In Me
TTITLE2=Rogers, Kenny - Desperado
TTITLE3=Rogers, Kenny - Lay Down Beside Me
TTITLE4=Rogers, Kenny - Blaze Of Glory
TTITLE5=Rogers, Kenny - Lady (S)
TTITLE6=Rogers, Kenny - You Decorated My Life
TTITLE7=Rogers, Kenny - Love Will Turn You Around
TTITLE8=Rogers, Kenny - I Don't Need You
TTITLE9=Rogers, Kenny - While The Feeling's Good
TTITLE10=Rogers, Kenny and West, Dottie - Just The Way You Are
TTITLE11=Rogers, Kenny - A Love Song
TTITLE12=Rogers, Kenny - Scarlet Fever
TTITLE13=Rogers, Kenny - Long Arm of the Law
TTITLE14=Rogers, Kenny - Share Your Love With Me
TTITLE15=Rogers, Kenny - Love Or Something Like It
TTITLE16=Rogers, Kenny - Through The Years
TTITLE17=Rogers, Kenny - Puttin' In Overtime At Home
TTITLE18=Rogers, Kenny - Laura (What's He Got That I Ain't Got)
TTITLE19=Rogers, Kenny and West, Dottie - You've Lost That Lovin' Feelin'
EXTD=
EXTT0=
EXTT1=
EXTT2=
EXTT3=
EXTT4=
EXTT5=
EXTT6=
EXTT7=
EXTT8=
EXTT9=
EXTT10=
EXTT11=
EXTT12=
EXTT13=
EXTT14=
EXTT15=
EXTT16=
EXTT17=
EXTT18=
EXTT19=
PLAYORDER=
